<?xml version="1.0" encoding="UTF-8"?>
<svg viewBox="0 0 640 480" xmlns="http://www.w3.org/2000/svg">
 <path d="m213.57 236.57c0 21.697-19.188 39.286-42.857 39.286s-42.857-17.589-42.857-39.286 19.188-39.285 42.857-39.285 42.857 17.588 42.857 39.285z"/>
 <path d="m265 237.29c0 21.697-19.188 39.286-42.857 39.286s-42.857-17.589-42.857-39.286 19.188-39.285 42.857-39.285 42.857 17.588 42.857 39.285z"/>
 <path d="m316.71 238.36c0 21.697-19.188 39.286-42.857 39.286s-42.857-17.589-42.857-39.286 19.188-39.285 42.857-39.285 42.857 17.588 42.857 39.285z"/>
 <path d="m368.14 239.07c0 21.697-19.188 39.286-42.857 39.286s-42.857-17.589-42.857-39.286 19.188-39.285 42.857-39.285 42.857 17.588 42.857 39.285z"/>
 <path d="m416.43 239.22c0 21.697-19.188 39.286-42.857 39.286s-42.857-17.589-42.857-39.286 19.188-39.285 42.857-39.285 42.857 17.588 42.857 39.285z"/>
 <path d="m467.86 239.93c0 21.697-19.188 39.286-42.857 39.286s-42.857-17.589-42.857-39.286 19.188-39.285 42.857-39.285 42.857 17.588 42.857 39.285z"/>
 <path d="m297.87 112c-22.569 0-41.095 13.394-42.75 30.375-60.156 13.053-103.96 52.048-104.41 98.188h297.16c-0.457-46.881-45.694-86.372-107.34-98.781-2.0251-16.697-20.352-29.782-42.656-29.782z"/>
 <path d="m174.08 290.08l52.884 154.74 140.07 1.098 50.026-154.74-242.98-1.098z"/>
 <g stroke-width="null">
  <ellipse cx="224" cy="182.5" rx="11" ry="10.5"/>
  <ellipse cx="274" cy="220" rx="11" ry="10.5"/>
  <ellipse cx="322" cy="181" rx="11" ry="10.5"/>
  <ellipse cx="372" cy="222" rx="11" ry="10.5"/>
  <ellipse cx="171" cy="225" rx="11" ry="10.5"/>
  <ellipse cx="220" cy="228" rx="11" ry="10.5"/>
  <ellipse cx="271" cy="172" rx="11" ry="10.5"/>
  <ellipse cx="323" cy="231" rx="11" ry="10.5"/>
  <ellipse cx="376" cy="183" rx="11" ry="10.5"/>
  <ellipse cx="423" cy="230" rx="11" ry="10.5"/>
  <ellipse cx="293" cy="133" rx="11" ry="10.5"/>
 </g>
</svg>
